<?xml version="1.0" encoding="utf-8"?>
<!-- Generator: Adobe Illustrator 27.2.0, SVG Export Plug-In . SVG Version: 6.00 Build 0)  -->
<svg version="1.1" id="Layer_1" xmlns="http://www.w3.org/2000/svg" xmlns:xlink="http://www.w3.org/1999/xlink" x="0px" y="0px"
	 viewBox="0 0 290 394" style="enable-background:new 0 0 290 394;" xml:space="preserve">
<style type="text/css">
	.st0{fill:#387ADF;}
	.st1{fill:#333A73;}
	.st2{fill:#FBA834;}
	.st3{fill:#3D3D3D;}
	.st4{opacity:0.25;}
	.st5{clip-path:url(#SVGID_00000070827314863933879460000002685278860869797034_);}
	.st6{fill:#FFFFFF;}
</style>
<g>
	<g>
		<path class="st0" d="M0,197c81.5,0,139,41,139,41v156c0,0-69.5-41-139-41L0,197z"/>
		<path class="st1" d="M290,197c-80.5,0-139,41-139,41v156c0,0,69.5-41,139-41V197z"/>
		<path class="st2" d="M203.4,78.4c-16.9,9.5-37.2,15.1-58.9,15.1c-22,0-42.5-5.7-59.6-15.4L3.5,185.5c0,0,83-2,140.6,42
			c62.4-43,140.2-42,140.2-42L203.4,78.4z"/>
		<path class="st3" d="M90,71.5c15.6,8.9,34.4,14,54.5,14c19.9,0,38.4-5,53.9-13.7L144.1,0L90,71.5z"/>
	</g>
	<g class="st4">
		<defs>
			<rect id="SVGID_1_" class="st4" width="143" height="227"/>
		</defs>
		<clipPath id="SVGID_00000125583902916926310340000018247313532364652934_">
			<use xlink:href="#SVGID_1_"  style="overflow:visible;"/>
		</clipPath>
		<g style="clip-path:url(#SVGID_00000125583902916926310340000018247313532364652934_);">
			<path class="st6" d="M203.2,78.9C186.2,88.5,166,94,144.2,94c-22,0-42.5-5.7-59.6-15.4L3.2,186c0,0,83-2,140.6,42
				c62.4-43,140.2-42,140.2-42L203.2,78.9z"/>
			<path class="st6" d="M89.7,71.9c15.6,8.9,34.4,14,54.5,14c19.9,0,38.4-5,53.9-13.7L143.9,0.5L89.7,71.9z"/>
		</g>
	</g>
</g>
</svg>
